<?xml version="1.0" encoding="utf-8"?>
<!-- Generator: Adobe Illustrator 27.8.1, SVG Export Plug-In . SVG Version: 6.00 Build 0)  -->
<svg version="1.1" id="Layer_1" xmlns="http://www.w3.org/2000/svg" xmlns:xlink="http://www.w3.org/1999/xlink" x="0px" y="0px"
	 viewBox="0 0 232.07 91.79" style="enable-background:new 0 0 232.07 91.79;" xml:space="preserve">
<style type="text/css">
	.st0{fill:#E8E8E8;}
</style>
<g>
	<path class="st0" d="M9.56,47.22c0-20.15,15.87-34.78,37.54-34.78c21.67,0,37.54,14.63,37.54,34.78
		c0,20.15-15.87,34.78-37.54,34.78C25.43,82.01,9.56,67.37,9.56,47.22 M62.02,47.22c0-10.36-6.65-16.63-14.92-16.63
		c-8.27,0-14.92,6.27-14.92,16.63c0,10.36,6.65,16.63,14.92,16.63C55.36,63.86,62.02,57.58,62.02,47.22"/>
	<polygon class="st0" points="177.3,58.44 172.26,64.05 172.26,80.49 150.21,80.49 150.21,13.96 172.26,13.96 172.26,38.1 
		194.12,13.96 218.54,13.96 191.93,43.23 219.87,80.49 193.93,80.49 	"/>
	<path class="st0" d="M137.86,45.7c6.08-3.04,9.22-8.17,9.22-14.35c0-10.08-8.55-17.39-26.9-17.39H84.64v66.52h37.44
		c18.34,0,28.13-6.75,28.13-18.34C150.21,54.26,145.65,48.56,137.86,45.7 M131.23,64.07c-1.03-0.05-1.99-0.44-2.77-1.13l-9.57-8.46
		l-3.29,7.68l-0.05,0.08c-0.52,0.91-1.5,1.43-2.54,1.38c-1.04-0.06-1.95-0.68-2.38-1.63L99.07,34.26c-0.44-1-0.27-2.13,0.46-2.95
		c0.72-0.82,1.83-1.13,2.87-0.82l0.02,0.01l28.92,8.04c1,0.3,1.73,1.13,1.92,2.16c0.19,1.03-0.22,2.06-1.05,2.7l-0.07,0.06
		l-7.19,4.2l-0.03,0.01l8.88,7.84c0.03,0.03,0.07,0.06,0.11,0.1l0.59,0.52c0.99,0.87,1.55,2.13,1.54,3.44
		c-0.01,1.06-0.38,2.08-1.06,2.89c-0.02,0.03-0.05,0.06-0.08,0.09C133.95,63.59,132.62,64.15,131.23,64.07"/>
	<path class="st0" d="M134.5,56.1l-0.59-0.52c-0.03-0.03-0.07-0.07-0.11-0.1l-8.85-7.82l7.19-4.2l0.08-0.06
		c0.84-0.64,1.25-1.68,1.06-2.72c-0.19-1.03-0.92-1.87-1.93-2.17l-28.92-8.04l-0.02-0.01c-1.06-0.32-2.16,0-2.9,0.83
		c-0.73,0.83-0.91,1.96-0.46,2.97l11.56,27.73c0.43,0.96,1.35,1.59,2.4,1.65c1.05,0.06,2.04-0.48,2.56-1.39l0.05-0.08l3.28-7.65
		l9.55,8.44c0.81,0.71,1.79,1.09,2.79,1.14c1.35,0.07,2.71-0.45,3.67-1.54v0c0.03-0.03,0.05-0.06,0.08-0.09
		c0.71-0.85,1.06-1.88,1.07-2.91C136.05,58.28,135.53,57.01,134.5,56.1 M134.96,62.45c-0.02,0.03-0.05,0.06-0.08,0.09
		c-0.92,1.05-2.26,1.61-3.65,1.53c-1.03-0.05-1.99-0.44-2.77-1.13l-9.58-8.46l-3.29,7.68l-0.05,0.08c-0.52,0.91-1.5,1.43-2.54,1.38
		c-1.04-0.06-1.95-0.68-2.38-1.63L99.07,34.26c-0.44-1-0.27-2.13,0.46-2.95c0.72-0.82,1.83-1.13,2.87-0.82l0.02,0.01l28.92,8.04
		c1,0.3,1.73,1.13,1.92,2.16c0.18,1.03-0.22,2.06-1.06,2.7l-0.07,0.06l-7.19,4.2l-0.03,0.01l8.88,7.84c0.03,0.03,0.07,0.06,0.11,0.1
		l0.59,0.52c0.99,0.87,1.55,2.13,1.54,3.44C136.01,60.62,135.64,61.64,134.96,62.45"/>
	<path class="st0" d="M134.51,56.08l-0.59-0.52c-0.04-0.03-0.07-0.07-0.11-0.1l-8.83-7.8l7.17-4.18l0.07-0.06
		c0.85-0.64,1.26-1.69,1.07-2.74c-0.19-1.04-0.93-1.88-1.95-2.19l-28.92-8.04l-0.02-0.01c-1.07-0.32-2.18,0-2.92,0.83
		c-0.74,0.83-0.91,1.98-0.46,3L110.58,62c0.43,0.97,1.36,1.6,2.42,1.66c1.06,0.06,2.05-0.48,2.59-1.4l0.05-0.08l3.26-7.62l9.53,8.42
		c0.78,0.7,1.75,1.09,2.8,1.14c0.08,0,0.16,0.01,0.25,0.01c1.32,0,2.56-0.56,3.44-1.55c0.03-0.03,0.05-0.06,0.08-0.09
		c0.69-0.82,1.07-1.86,1.07-2.92C136.08,58.23,135.51,56.96,134.51,56.08 M131.23,64.07c-1.04-0.05-1.99-0.44-2.77-1.13l-9.57-8.46
		l-3.29,7.68l-0.05,0.08c-0.52,0.91-1.5,1.43-2.54,1.38c-1.04-0.06-1.95-0.68-2.38-1.63L99.07,34.26c-0.44-1-0.27-2.13,0.46-2.95
		c0.72-0.82,1.83-1.13,2.87-0.82l0.02,0.01l28.92,8.04c1,0.3,1.73,1.13,1.92,2.16c0.19,1.03-0.22,2.06-1.05,2.7l-0.07,0.06
		l-7.19,4.2l-0.03,0.01l8.88,7.84c0.03,0.03,0.07,0.06,0.11,0.1l0.59,0.52c0.99,0.87,1.55,2.13,1.54,3.44
		c-0.01,1.06-0.38,2.08-1.06,2.89c-0.02,0.03-0.05,0.06-0.08,0.09C133.95,63.59,132.62,64.15,131.23,64.07"/>
</g>
</svg>
